<?xml version="1.0" encoding="UTF-8" standalone="no"?>
<!DOCTYPE svg PUBLIC "-//W3C//DTD SVG 1.1//EN" "http://www.w3.org/Graphics/SVG/1.1/DTD/svg11.dtd">
<svg width="100%" height="100%" viewBox="0 0 574 77" version="1.1" xmlns="http://www.w3.org/2000/svg" xmlns:xlink="http://www.w3.org/1999/xlink" xml:space="preserve" xmlns:serif="http://www.serif.com/" style="fill-rule:evenodd;clip-rule:evenodd;stroke-linejoin:round;stroke-miterlimit:2;">
    <g transform="matrix(0.7401,0,0,0.7401,-9.78005,-3.1688)">
        <g transform="matrix(0.912747,0,0,0.78836,11.331,3.48148)">
            <g transform="matrix(1.14612,0,0,1.10345,-46.1187,-146.517)">
                <rect x="124" y="150" width="219" height="87" style="fill:rgb(0,211,224);"/>
            </g>
            <g transform="matrix(0.000258069,0.405063,0.409091,-0.000260636,65.5823,-25.9416)">
                <path d="M332.124,94.5C342.525,89.483 348,83.793 348,78C348,59.787 294.902,45 229.5,45C164.098,45 111,59.787 111,78C111,83.793 116.475,89.483 126.876,94.5L332.124,94.5Z" style="fill:rgb(0,211,224);"/>
            </g>
            <g transform="matrix(-0.000258069,-0.405063,-0.409091,0.000260636,377.519,159.942)">
                <path d="M332.124,94.5C342.525,89.483 348,83.793 348,78C348,59.787 294.902,45 229.5,45C164.098,45 111,59.787 111,78C111,83.793 116.475,89.483 126.876,94.5L332.124,94.5Z" style="fill:rgb(0,211,224);"/>
            </g>
            <g transform="matrix(1.05907,-5.16729e-19,1.98806e-19,-0.409091,-21.557,145.409)">
                <path d="M332.124,94.5C342.525,89.483 348,83.793 348,78C348,59.787 294.902,45 229.5,45C164.098,45 111,59.787 111,78C111,83.793 116.475,89.483 126.876,94.5L332.124,94.5Z" style="fill:rgb(0,211,224);"/>
            </g>
            <g transform="matrix(1.05907,0,0,0.409091,-21.557,-11.4091)">
                <path d="M332.124,94.5C342.525,89.483 348,83.793 348,78C348,59.787 294.902,45 229.5,45C164.098,45 111,59.787 111,78C111,83.793 116.475,89.483 126.876,94.5L332.124,94.5Z" style="fill:rgb(0,211,224);"/>
            </g>
        </g>
        <g transform="matrix(0.604728,0,0,0.604728,-27.7853,-42.0843)">
            <g transform="matrix(1,0,0,1,82.465,219)">
                <text x="0px" y="0px" style="font-family:'AlienEncounters', 'Alien Encounters';font-size:151.933px;fill:rgb(101,79,255);">V</text>
            </g>
            <g transform="matrix(1,0,0,1,205.531,219)">
                <text x="0px" y="0px" style="font-family:'AlienEncounters', 'Alien Encounters';font-size:151.933px;fill:rgb(101,79,255);">Tub</text>
            </g>
            <g transform="matrix(1,0,0,1,506.358,219)">
                <text x="0px" y="0px" style="font-family:'AlienEncounters', 'Alien Encounters';font-size:151.933px;fill:rgb(101,79,255);">e</text>
            </g>
            <g>
                <g transform="matrix(1,0,0,1,617.27,219)">
                    <text x="0px" y="0px" style="font-family:'AlienEncounters', 'Alien Encounters';font-size:151.933px;fill:rgb(101,79,255);">P</text>
                </g>
                <g transform="matrix(1,0,0,1,699.314,219)">
                    <text x="0px" y="0px" style="font-family:'AlienEncounters', 'Alien Encounters';font-size:151.933px;fill:rgb(101,79,255);">aradis</text>
                </g>
            </g>
            <g transform="matrix(1,0,0,1,1250.83,219)">
                <text x="0px" y="0px" style="font-family:'AlienEncounters', 'Alien Encounters';font-size:151.933px;fill:rgb(101,79,255);">e</text>
            </g>
        </g>
        <g transform="matrix(0.604728,0,0,0.604728,-29.7853,-45.0843)">
            <g transform="matrix(1,0,0,1,82.465,219)">
                <text x="0px" y="0px" style="font-family:'AlienEncounters', 'Alien Encounters';font-size:151.933px;">V</text>
            </g>
            <g transform="matrix(1,0,0,1,205.531,219)">
                <text x="0px" y="0px" style="font-family:'AlienEncounters', 'Alien Encounters';font-size:151.933px;fill:white;">Tub</text>
            </g>
            <g transform="matrix(1,0,0,1,506.358,219)">
                <text x="0px" y="0px" style="font-family:'AlienEncounters', 'Alien Encounters';font-size:151.933px;fill:white;">e</text>
            </g>
            <g>
                <g transform="matrix(1,0,0,1,617.27,219)">
                    <text x="0px" y="0px" style="font-family:'AlienEncounters', 'Alien Encounters';font-size:151.933px;">P</text>
                </g>
                <g transform="matrix(1,0,0,1,699.314,219)">
                    <text x="0px" y="0px" style="font-family:'AlienEncounters', 'Alien Encounters';font-size:151.933px;">aradis</text>
                </g>
            </g>
            <g transform="matrix(1,0,0,1,1250.83,219)">
                <text x="0px" y="0px" style="font-family:'AlienEncounters', 'Alien Encounters';font-size:151.933px;">e</text>
            </g>
        </g>
    </g>
</svg>
